<svg width="37" height="37" viewBox="0 0 37 37" fill="none" xmlns="http://www.w3.org/2000/svg">
<path d="M18.3226 36.8052C8.20106 36.8052 7.14468e-09 28.5669 4.51439e-07 18.4027C8.95796e-07 8.23695 8.20106 3.58477e-07 18.3226 8.00902e-07C28.4427 1.24327e-06 36.6452 8.23695 36.6452 18.4027C36.6452 28.5669 28.4427 36.8052 18.3226 36.8052Z" fill="#1B1B1E"/>
<path d="M18.3222 24.646C14.9193 24.646 12.1613 21.8868 12.1613 18.4843C12.1613 15.0804 14.9193 12.3242 18.3222 12.3242C21.7251 12.3242 24.4831 15.0804 24.4831 18.4843C24.4831 21.8868 21.7251 24.646 18.3222 24.646Z" fill="#FBFBFB"/>
</svg>
